<svg width="20" height="20" viewBox="0 0 20 20" fill="none" xmlns="http://www.w3.org/2000/svg">
<path d="M13.8439 13.4039C11.6497 14.6398 10.3977 17.2008 10 17.9167V6.66669C10.3454 6.04499 11.335 4.26374 13.0264 3.05309C13.739 2.54308 14.0952 2.28807 14.5477 2.52059C15 2.75311 15 3.26638 15 4.29291V11.6595C15 12.214 15 12.4913 14.8862 12.6861C14.7722 12.8809 14.4628 13.0553 13.8439 13.4039Z" stroke="black" stroke-width="1.25" stroke-linecap="round" stroke-linejoin="round"/>
<path d="M9.99999 6.50463C9.42757 5.90336 7.76811 4.47533 4.98379 3.97465C3.57324 3.721 2.86796 3.59418 2.26731 4.08028C1.66666 4.56638 1.66666 5.35573 1.66666 6.93444V12.6081C1.66666 14.0516 1.66666 14.7733 2.05216 15.2239C2.43766 15.6746 3.28636 15.8272 4.98379 16.1324C6.49693 16.4045 7.67786 16.8381 8.53266 17.2738C9.37366 17.7023 9.79416 17.9167 9.99999 17.9167C10.2058 17.9167 10.6263 17.7023 11.4673 17.2738C12.3222 16.8381 13.5031 16.4045 15.0162 16.1324C16.7137 15.8272 17.5623 15.6746 17.9478 15.2239C18.3333 14.7733 18.3333 14.0516 18.3333 12.6081V6.93444C18.3333 5.35573 18.3333 4.56638 17.7327 4.08028C17.132 3.59418 15.8333 3.97465 15 4.58333" stroke="black" stroke-width="1.25" stroke-linecap="round" stroke-linejoin="round"/>
</svg>
