<svg width="32" height="32" viewBox="0 0 32 32" fill="none" xmlns="http://www.w3.org/2000/svg">
<path fill-rule="evenodd" clip-rule="evenodd" d="M13.3333 17.3333C13.3333 16.5969 13.9303 16 14.6667 16H21.3333C22.0697 16 22.6667 16.5969 22.6667 17.3333C22.6667 18.0697 22.0697 18.6667 21.3333 18.6667H14.6667C13.9303 18.6667 13.3333 18.0697 13.3333 17.3333ZM9.33333 17.3333C9.33333 16.5969 9.93029 16 10.6667 16H10.6786C11.415 16 12.012 16.5969 12.012 17.3333C12.012 18.0697 11.415 18.6667 10.6786 18.6667H10.6667C9.93029 18.6667 9.33333 18.0697 9.33333 17.3333ZM9.33333 22.6667C9.33333 21.9303 9.93029 21.3333 10.6667 21.3333H17.3333C18.0697 21.3333 18.6667 21.9303 18.6667 22.6667C18.6667 23.4031 18.0697 24 17.3333 24H10.6667C9.93029 24 9.33333 23.4031 9.33333 22.6667ZM19.988 22.6667C19.988 21.9303 20.5849 21.3333 21.3213 21.3333H21.3333C22.0697 21.3333 22.6667 21.9303 22.6667 22.6667C22.6667 23.4031 22.0697 24 21.3333 24H21.3213C20.5849 24 19.988 23.4031 19.988 22.6667Z" fill="#767DFF"/>
<path d="M9.33333 2.66683C9.33333 1.93046 8.73637 1.3335 8 1.3335C7.26363 1.3335 6.66667 1.93046 6.66667 2.66683V3.2653C7.17376 3.10444 7.71405 2.9896 8.28711 2.90631C8.61771 2.85826 8.96629 2.81984 9.33333 2.78914V2.66683Z" fill="#767DFF"/>
<path d="M25.3333 3.2653C24.8263 3.10444 24.286 2.9896 23.7129 2.90631C23.3823 2.85826 23.0337 2.81984 22.6667 2.78914V2.66683C22.6667 1.93046 23.2636 1.3335 24 1.3335C24.7364 1.3335 25.3333 1.93046 25.3333 2.66683V3.2653Z" fill="#767DFF"/>
<path opacity="0.4" fill-rule="evenodd" clip-rule="evenodd" d="M17.3717 2.6665H14.6283C12.0306 2.66646 9.93521 2.66642 8.28711 2.90598C6.56713 3.15597 5.1424 3.69025 4.02403 4.8993C2.91932 6.09359 2.44372 7.59013 2.21888 9.39805C1.99996 11.1584 1.99997 13.4053 2 16.2317V17.1013C1.99997 19.9277 1.99996 22.1746 2.21888 23.9349C2.44372 25.7429 2.91932 27.2394 4.02403 28.4337C5.1424 29.6428 6.56713 30.177 8.28711 30.427C9.93523 30.6666 12.0306 30.6665 14.6283 30.6665H17.3717C19.9695 30.6665 22.0648 30.6666 23.7129 30.427C25.4329 30.177 26.8576 29.6428 27.976 28.4337C29.0807 27.2394 29.5563 25.7429 29.7811 23.9349C30 22.1746 30 19.9277 30 17.1013V16.2317C30 13.4053 30 11.1584 29.7811 9.39805C29.5563 7.59013 29.0807 6.09359 27.976 4.8993C26.8576 3.69025 25.4329 3.15597 23.7129 2.90598C22.0648 2.66642 19.9695 2.66646 17.3717 2.6665ZM5.99711 11.9998C5.38561 11.9998 5.07987 11.9998 4.88513 12.1921C4.69041 12.3843 4.68649 12.6861 4.67867 13.2899C4.66703 14.1874 4.66667 15.1921 4.66667 16.3241V17.0089C4.66667 19.9486 4.66909 22.0293 4.86516 23.6058C5.05769 25.154 5.41684 26.0124 5.98163 26.6229C6.53275 27.2188 7.28627 27.5869 8.67067 27.7881C10.1048 27.9965 12.0057 27.9998 14.7333 27.9998H17.2667C19.9943 27.9998 21.8952 27.9965 23.3293 27.7881C24.7137 27.5869 25.4672 27.2188 26.0184 26.6229C26.5832 26.0124 26.9423 25.154 27.1348 23.6058C27.3309 22.0293 27.3333 19.9486 27.3333 17.0089V16.3241C27.3333 15.1921 27.3329 14.1874 27.3213 13.2899C27.3135 12.6861 27.3096 12.3843 27.1149 12.1921C26.9201 11.9998 26.6144 11.9998 26.0029 11.9998H5.99711Z" fill="#767DFF"/>
</svg>
