<svg width="20" height="20" viewBox="0 0 20 20" fill="none" xmlns="http://www.w3.org/2000/svg">
<path d="M3.55651 15.7039C3.74391 17.0958 4.89677 18.1862 6.29972 18.2507C7.48022 18.305 8.67942 18.3333 10 18.3333C11.3206 18.3333 12.5197 18.305 13.7002 18.2507C15.1032 18.1862 16.2561 17.0958 16.4435 15.7039C16.5658 14.7956 16.6667 13.8647 16.6667 12.9167C16.6667 11.9687 16.5658 11.0378 16.4435 10.1294C16.2561 8.7375 15.1032 7.64707 13.7002 7.58257C12.5197 7.52831 11.3206 7.5 10 7.5C8.67942 7.5 7.48022 7.52831 6.29972 7.58257C4.89677 7.64707 3.74391 8.7375 3.55651 10.1294C3.43421 11.0378 3.33333 11.9687 3.33333 12.9167C3.33333 13.8647 3.43421 14.7956 3.55651 15.7039Z" stroke="#6F6F79" stroke-width="1.25"/>
<path d="M6.25 7.50008V5.41675C6.25 3.34568 7.92893 1.66675 10 1.66675C12.0711 1.66675 13.75 3.34568 13.75 5.41675V7.50008" stroke="#6F6F79" stroke-width="1.25" stroke-linecap="round" stroke-linejoin="round"/>
<path d="M13.3333 12.9082V12.9165" stroke="#6F6F79" stroke-width="1.66667" stroke-linecap="round" stroke-linejoin="round"/>
<path d="M10 12.9082V12.9165" stroke="#6F6F79" stroke-width="1.66667" stroke-linecap="round" stroke-linejoin="round"/>
<path d="M6.66667 12.9082V12.9165" stroke="#6F6F79" stroke-width="1.66667" stroke-linecap="round" stroke-linejoin="round"/>
</svg>
