<svg width="14" height="14" viewBox="0 0 14 14" fill="none" xmlns="http://www.w3.org/2000/svg">
<path opacity="0.4" fill-rule="evenodd" clip-rule="evenodd" d="M6.50417 11.6668C9.31083 11.6668 11.5208 9.5426 11.5208 7.00016C11.5208 4.4577 9.31083 2.3335 6.50417 2.3335C6.25327 2.3335 6.00705 2.35059 5.76666 2.38355C5.44746 2.42724 5.15328 2.20394 5.10959 1.88474C5.06584 1.56559 5.28914 1.27136 5.60834 1.22767C5.90112 1.18754 6.20025 1.16683 6.50417 1.16683C9.88309 1.16683 12.6875 3.74359 12.6875 7.00016C12.6875 10.2567 9.88309 12.8335 6.50417 12.8335C6.20025 12.8335 5.90112 12.8128 5.60834 12.7727C5.28914 12.729 5.06584 12.4348 5.10959 12.1156C5.15328 11.7964 5.44746 11.5731 5.76666 11.6168C6.00705 11.6497 6.25327 11.6668 6.50417 11.6668Z" fill="#AFB3C1"/>
<path d="M1.89583 6.41339C1.57366 6.41339 1.3125 6.67461 1.3125 6.99672C1.3125 7.3189 1.57366 7.58006 1.89583 7.58006H5.6875V7.92673C5.68744 8.02916 5.68732 8.15499 5.70022 8.25791L5.70045 8.25985C5.70967 8.33362 5.75155 8.66964 6.08148 8.82968C6.41217 8.99008 6.7039 8.81395 6.76702 8.77585L7.04031 8.57802C7.25952 8.40614 7.55965 8.16948 7.78773 7.94756C7.90154 7.83684 8.01891 7.71008 8.1116 7.57539C8.19395 7.45569 8.31252 7.25141 8.31252 7.00016C8.31252 6.74892 8.19395 6.54464 8.1116 6.42494C8.01891 6.29025 7.90154 6.16349 7.78773 6.05277C7.55965 5.83081 7.25952 5.59421 7.04031 5.42231L6.76702 5.2245C6.7039 5.18641 6.41212 5.01024 6.08148 5.17066C5.75155 5.33066 5.70967 5.66672 5.70045 5.74046L5.70022 5.74244C5.68732 5.84534 5.68744 5.97116 5.6875 6.0736V6.41339H1.89583Z" fill="#AFB3C1"/>
</svg>
