<svg width="20" height="20" viewBox="0 0 20 20" fill="none" xmlns="http://www.w3.org/2000/svg">
<path d="M5.83334 6.25L8.28503 7.69953C9.71434 8.54458 10.2857 8.54458 11.715 7.69953L14.1667 6.25" stroke="black" stroke-width="1.25" stroke-linecap="round" stroke-linejoin="round"/>
<path d="M8.74999 16.2499C8.36141 16.2448 7.97234 16.2374 7.58235 16.2276C4.9586 16.1617 3.64672 16.1287 2.70412 15.1819C1.76151 14.2352 1.73427 12.9572 1.6798 10.4011C1.66228 9.57917 1.66227 8.76217 1.67979 7.94028C1.73427 5.38419 1.76151 4.10615 2.70411 3.15941C3.64672 2.21267 4.9586 2.17969 7.58234 2.11374C9.19941 2.07309 10.8006 2.07309 12.4177 2.11374C15.0414 2.1797 16.3532 2.21269 17.2958 3.15943C18.2385 4.10616 18.2657 5.3842 18.3202 7.94029C18.3282 8.31868 18.3326 8.497 18.3332 8.74992" stroke="black" stroke-width="1.25" stroke-linecap="round" stroke-linejoin="round"/>
<path d="M15.8333 14.1667C15.8333 14.8571 15.2737 15.4167 14.5833 15.4167C13.893 15.4167 13.3333 14.8571 13.3333 14.1667C13.3333 13.4764 13.893 12.9167 14.5833 12.9167C15.2737 12.9167 15.8333 13.4764 15.8333 14.1667ZM15.8333 14.1667V14.5834C15.8333 15.2737 16.393 15.8334 17.0833 15.8334C17.7737 15.8334 18.3333 15.2737 18.3333 14.5834V14.1667C18.3333 12.0957 16.6544 10.4167 14.5833 10.4167C12.5123 10.4167 10.8333 12.0957 10.8333 14.1667C10.8333 16.2378 12.5123 17.9167 14.5833 17.9167" stroke="black" stroke-width="1.25" stroke-linecap="round" stroke-linejoin="round"/>
</svg>
