<svg width="34" height="34" viewBox="0 0 34 34" fill="none" xmlns="http://www.w3.org/2000/svg">
<path d="M11.6111 8.7965C11.6111 8.3687 11.6111 8.1548 11.7181 7.98366C11.8251 7.81251 12.0173 7.71879 12.4019 7.53136L21.3505 3.16968C23.6791 2.03476 24.8433 1.46729 26.1413 1.9096C27.4394 2.35192 27.8848 3.30101 28.776 5.1992C31.2228 10.4116 31.2228 16.3292 28.776 21.5415C27.8848 23.4398 27.4394 24.3888 26.1413 24.8312C24.8433 25.2735 23.6791 24.7061 21.3505 23.5711L12.4019 19.2094C12.0173 19.022 11.8251 18.9282 11.7181 18.7571C11.6111 18.586 11.6111 18.372 11.6111 17.9443V8.7965Z" fill="#FFB46D"/>
<path d="M9.5 9.25729C9.5 9.15417 9.5 9.1026 9.49789 9.07541C9.47203 8.7424 9.324 8.55691 9.00501 8.45784C8.97898 8.44975 8.90001 8.43179 8.74208 8.39586C8.1857 8.26932 7.90731 8.20598 7.68326 8.18002C4.9009 7.8574 3.16666 10.0934 3.16666 12.6646V14.0757C3.16666 16.6469 4.9009 18.883 7.68326 18.5603C7.90731 18.5344 8.18556 18.471 8.74191 18.3445C8.89998 18.3086 8.97902 18.2906 9.00511 18.2824C9.32399 18.1834 9.47198 17.998 9.49787 17.665C9.5 17.6379 9.5 17.5862 9.5 17.4829V9.25729Z" fill="#FFB46D"/>
<path opacity="0.4" d="M13.9562 22.3826C14.584 23.3791 15.3721 24.0995 16.3306 24.7274C18.0956 25.8834 18.6517 28.5187 16.7968 30.0474L14.698 31.7772C14.3139 32.0938 13.7607 32.099 13.3707 31.7896C10.9218 29.8474 9.67854 28.2797 9.15123 26.1475C8.89868 25.1264 8.82182 24.0221 8.80171 22.7702C8.79158 22.1394 8.79749 21.2736 8.80464 20.4658C8.80635 20.271 8.9418 20.1031 9.13173 20.0599C9.5934 19.9549 10.0177 20.0044 10.4358 20.2082L13.3432 21.6252C13.467 21.6856 13.529 21.7158 13.5762 21.7607C13.6235 21.8057 13.6594 21.8708 13.731 22.0007C13.8041 22.1333 13.8792 22.2605 13.9562 22.3826Z" fill="#FFB46D"/>
</svg>
