<svg width="20" height="20" viewBox="0 0 20 20" fill="none" xmlns="http://www.w3.org/2000/svg">
<path d="M11.6667 2.91663C14.8093 2.91663 16.3807 2.91663 17.357 3.95396C18.3333 4.99128 18.3333 6.66084 18.3333 9.99996C18.3333 13.339 18.3333 15.0086 17.357 16.046C16.3807 17.0833 14.8093 17.0833 11.6667 17.0833H8.33332C5.19062 17.0833 3.61928 17.0833 2.64296 16.046C1.66666 15.0086 1.66666 13.339 1.66666 9.99996C1.66666 6.66084 1.66666 4.99128 2.64296 3.95396C3.61928 2.91663 5.19062 2.91663 8.33332 2.91663H11.6667Z" stroke="#6F6F79" stroke-width="1.25" stroke-linejoin="round"/>
<path d="M4.16666 12.9167C5.5072 11.1356 8.62824 11.0384 9.99999 12.9167M8.54082 8.54181C8.54082 9.34723 7.88792 10.0001 7.08251 10.0001C6.2771 10.0001 5.62417 9.34723 5.62417 8.54181C5.62417 7.73641 6.2771 7.0835 7.08251 7.0835C7.88792 7.0835 8.54082 7.73641 8.54082 8.54181Z" stroke="#6F6F79" stroke-width="1.25" stroke-linecap="round"/>
<path d="M12.5 7.91663H15.8333" stroke="#6F6F79" stroke-width="1.25" stroke-linecap="round"/>
<path d="M12.5 11.25H14.1667" stroke="#6F6F79" stroke-width="1.25" stroke-linecap="round"/>
</svg>
