<svg width="33" height="30" viewBox="0 0 33 30" fill="none" xmlns="http://www.w3.org/2000/svg">
<circle cx="16.3611" cy="16.3614" r="13.1944" fill="#FF84EA"/>
<ellipse cx="2.63889" cy="16.3613" rx="2.63889" ry="4.75" fill="#FFB9FF"/>
<ellipse cx="30.0833" cy="16.3613" rx="2.63889" ry="4.75" fill="#FFB9FF"/>
<path d="M30.6111 12.6667C30.6111 11.0033 30.2425 9.35613 29.5264 7.81934C28.8102 6.28255 27.7606 4.88619 26.4374 3.70998C25.1141 2.53377 23.5432 1.60075 21.8143 0.964192C20.0854 0.327633 18.2324 -7.271e-08 16.3611 0C14.4897 7.271e-08 12.6367 0.327633 10.9078 0.964193C9.17895 1.60075 7.60805 2.53377 6.28481 3.70998C4.96158 4.88619 3.91193 6.28255 3.1958 7.81934C2.47967 9.35614 2.11108 11.0033 2.11108 12.6667H4.50047C4.50047 11.2822 4.80725 9.91123 5.4033 8.63212C5.99935 7.35302 6.873 6.19079 7.97436 5.2118C9.07572 4.23281 10.3832 3.45624 11.8222 2.92642C13.2612 2.39659 14.8035 2.12389 16.3611 2.12389C17.9186 2.12389 19.4609 2.39659 20.8999 2.92642C22.3389 3.45624 23.6464 4.23281 24.7478 5.2118C25.8492 6.19079 26.7228 7.35301 27.3189 8.63212C27.9149 9.91123 28.2217 11.2822 28.2217 12.6667H30.6111Z" fill="#FFB9FF"/>
<path d="M21.0972 23.7557C22.7732 24.4644 24.6621 24.4783 26.3483 23.7943C28.0345 23.1103 29.38 21.7845 30.0887 20.1085L28.8944 19.6035C28.3197 20.9627 27.2285 22.038 25.8609 22.5928C24.4933 23.1475 22.9614 23.1362 21.6021 22.5615L21.0972 23.7557Z" fill="#FFB9FF"/>
<path d="M22.1667 20.5835C22.1667 21.2073 22.0302 21.8249 21.7649 22.4012C21.4997 22.9775 21.1109 23.5012 20.6208 23.9423C20.1308 24.3833 19.5489 24.7332 18.9086 24.9719C18.2683 25.2106 17.582 25.3335 16.8889 25.3335C16.1958 25.3335 15.5095 25.2106 14.8692 24.9719C14.2288 24.7332 13.647 24.3833 13.1569 23.9423C12.6669 23.5012 12.2781 22.9775 12.0129 22.4012C11.7476 21.8249 11.6111 21.2073 11.6111 20.5835L16.8889 20.5835H22.1667Z" fill="#FFEFFF"/>
</svg>
